<svg width="327" height="39" viewBox="0 0 327 39" fill="none" xmlns="http://www.w3.org/2000/svg">
<path d="M22.924 17.624H33.708V21.656H22.924V17.624ZM23.308 26.84H35.5V31H18.156V8.6H35.084V12.76H23.308V26.84ZM39.6248 31V8.6H49.8008C52.2328 8.6 54.3768 9.06933 56.2328 10.008C58.0888 10.9253 59.5394 12.216 60.5848 13.88C61.6301 15.544 62.1528 17.5173 62.1528 19.8C62.1528 22.0613 61.6301 24.0347 60.5848 25.72C59.5394 27.384 58.0888 28.6853 56.2328 29.624C54.3768 30.5413 52.2328 31 49.8008 31H39.6248ZM44.8088 26.744H49.5448C51.0381 26.744 52.3288 26.4667 53.4167 25.912C54.5261 25.336 55.3794 24.5253 55.9768 23.48C56.5954 22.4347 56.9048 21.208 56.9048 19.8C56.9048 18.3707 56.5954 17.144 55.9768 16.12C55.3794 15.0747 54.5261 14.2747 53.4167 13.72C52.3288 13.144 51.0381 12.856 49.5448 12.856H44.8088V26.744ZM66.0623 31V8.6H71.2463V31H66.0623ZM81.2023 31V12.824H74.0343V8.6H93.5543V12.824H86.3863V31H81.2023ZM92.2745 31L102.259 8.6H107.379L117.395 31H111.955L103.763 11.224H105.811L97.5865 31H92.2745ZM97.2665 26.2L98.6425 22.264H110.163L111.571 26.2H97.2665ZM119.719 31V8.6H129.415C131.42 8.6 133.148 8.93067 134.599 9.592C136.049 10.232 137.169 11.16 137.959 12.376C138.748 13.592 139.143 15.0427 139.143 16.728C139.143 18.392 138.748 19.832 137.959 21.048C137.169 22.2427 136.049 23.16 134.599 23.8C133.148 24.44 131.42 24.76 129.415 24.76H122.599L124.903 22.488V31H119.719ZM133.958 31L128.359 22.872H133.895L139.559 31H133.958ZM124.903 23.064L122.599 20.632H129.127C130.727 20.632 131.921 20.2907 132.711 19.608C133.5 18.904 133.895 17.944 133.895 16.728C133.895 15.4907 133.5 14.5307 132.711 13.848C131.921 13.1653 130.727 12.824 129.127 12.824H122.599L124.903 10.36V23.064ZM162.264 31.384C159.086 31.384 156.6 30.4987 154.808 28.728C153.016 26.9573 152.12 24.4293 152.12 21.144V8.6H157.304V20.952C157.304 23.0853 157.742 24.6213 158.616 25.56C159.491 26.4987 160.718 26.968 162.296 26.968C163.875 26.968 165.102 26.4987 165.976 25.56C166.851 24.6213 167.288 23.0853 167.288 20.952V8.6H172.408V21.144C172.408 24.4293 171.512 26.9573 169.72 28.728C167.928 30.4987 165.443 31.384 162.264 31.384ZM184.891 31.384C183.099 31.384 181.382 31.1493 179.739 30.68C178.096 30.1893 176.774 29.56 175.771 28.792L177.531 24.888C178.491 25.5707 179.622 26.136 180.923 26.584C182.246 27.0107 183.579 27.224 184.923 27.224C185.947 27.224 186.768 27.128 187.387 26.936C188.027 26.7227 188.496 26.4347 188.795 26.072C189.094 25.7093 189.243 25.2933 189.243 24.824C189.243 24.2267 189.008 23.7573 188.539 23.416C188.07 23.0533 187.451 22.7653 186.683 22.552C185.915 22.3173 185.062 22.104 184.123 21.912C183.206 21.6987 182.278 21.4427 181.339 21.144C180.422 20.8453 179.579 20.4613 178.811 19.992C178.043 19.5227 177.414 18.904 176.923 18.136C176.454 17.368 176.219 16.3867 176.219 15.192C176.219 13.912 176.56 12.7493 177.243 11.704C177.947 10.6373 178.992 9.79467 180.379 9.176C181.787 8.536 183.547 8.216 185.659 8.216C187.067 8.216 188.454 8.38667 189.819 8.728C191.184 9.048 192.39 9.53867 193.435 10.2L191.835 14.136C190.79 13.5387 189.744 13.1013 188.699 12.824C187.654 12.5253 186.63 12.376 185.627 12.376C184.624 12.376 183.803 12.4933 183.163 12.728C182.523 12.9627 182.064 13.272 181.787 13.656C181.51 14.0187 181.371 14.4453 181.371 14.936C181.371 15.512 181.606 15.9813 182.075 16.344C182.544 16.6853 183.163 16.9627 183.931 17.176C184.699 17.3893 185.542 17.6027 186.459 17.816C187.398 18.0293 188.326 18.2747 189.243 18.552C190.182 18.8293 191.035 19.2027 191.803 19.672C192.571 20.1413 193.19 20.76 193.659 21.528C194.15 22.296 194.395 23.2667 194.395 24.44C194.395 25.6987 194.043 26.8507 193.339 27.896C192.635 28.9413 191.579 29.784 190.171 30.424C188.784 31.064 187.024 31.384 184.891 31.384ZM207.889 31.384C204.711 31.384 202.225 30.4987 200.433 28.728C198.641 26.9573 197.745 24.4293 197.745 21.144V8.6H202.929V20.952C202.929 23.0853 203.367 24.6213 204.241 25.56C205.116 26.4987 206.343 26.968 207.921 26.968C209.5 26.968 210.727 26.4987 211.601 25.56C212.476 24.6213 212.913 23.0853 212.913 20.952V8.6H218.033V21.144C218.033 24.4293 217.137 26.9573 215.345 28.728C213.553 30.4987 211.068 31.384 207.889 31.384ZM219.743 31L229.727 8.6H234.847L244.863 31H239.423L231.231 11.224H233.279L225.055 31H219.743ZM224.735 26.2L226.111 22.264H237.631L239.039 26.2H224.735ZM229.375 6.776L233.695 2.168H239.071L233.279 6.776H229.375ZM247.187 31V8.6H256.883C258.889 8.6 260.617 8.93067 262.067 9.592C263.518 10.232 264.638 11.16 265.427 12.376C266.217 13.592 266.611 15.0427 266.611 16.728C266.611 18.392 266.217 19.832 265.427 21.048C264.638 22.2427 263.518 23.16 262.067 23.8C260.617 24.44 258.889 24.76 256.883 24.76H250.067L252.371 22.488V31H247.187ZM261.427 31L255.827 22.872H261.363L267.027 31H261.427ZM252.371 23.064L250.067 20.632H256.595C258.195 20.632 259.39 20.2907 260.179 19.608C260.969 18.904 261.363 17.944 261.363 16.728C261.363 15.4907 260.969 14.5307 260.179 13.848C259.39 13.1653 258.195 12.824 256.595 12.824H250.067L252.371 10.36V23.064ZM270.719 31V8.6H275.903V31H270.719ZM292.099 31.384C290.328 31.384 288.685 31.096 287.171 30.52C285.677 29.944 284.376 29.1333 283.266 28.088C282.179 27.0427 281.325 25.816 280.707 24.408C280.109 23 279.811 21.464 279.811 19.8C279.811 18.136 280.109 16.6 280.707 15.192C281.325 13.784 282.189 12.5573 283.299 11.512C284.408 10.4667 285.709 9.656 287.203 9.08C288.696 8.504 290.317 8.216 292.067 8.216C293.837 8.216 295.458 8.504 296.931 9.08C298.424 9.656 299.715 10.4667 300.803 11.512C301.912 12.5573 302.776 13.784 303.395 15.192C304.013 16.5787 304.323 18.1147 304.323 19.8C304.323 21.464 304.013 23.0107 303.395 24.44C302.776 25.848 301.912 27.0747 300.803 28.12C299.715 29.144 298.424 29.944 296.931 30.52C295.458 31.096 293.848 31.384 292.099 31.384ZM292.067 26.968C293.069 26.968 293.987 26.7973 294.819 26.456C295.672 26.1147 296.419 25.624 297.059 24.984C297.699 24.344 298.189 23.5867 298.531 22.712C298.893 21.8373 299.075 20.8667 299.075 19.8C299.075 18.7333 298.893 17.7627 298.531 16.888C298.189 16.0133 297.699 15.256 297.059 14.616C296.44 13.976 295.704 13.4853 294.851 13.144C293.997 12.8027 293.069 12.632 292.067 12.632C291.064 12.632 290.136 12.8027 289.283 13.144C288.451 13.4853 287.715 13.976 287.075 14.616C286.435 15.256 285.933 16.0133 285.571 16.888C285.229 17.7627 285.059 18.7333 285.059 19.8C285.059 20.8453 285.229 21.816 285.571 22.712C285.933 23.5867 286.424 24.344 287.043 24.984C287.683 25.624 288.429 26.1147 289.283 26.456C290.136 26.7973 291.064 26.968 292.067 26.968ZM315.579 31.384C313.787 31.384 312.069 31.1493 310.427 30.68C308.784 30.1893 307.461 29.56 306.459 28.792L308.219 24.888C309.179 25.5707 310.309 26.136 311.611 26.584C312.933 27.0107 314.267 27.224 315.611 27.224C316.635 27.224 317.456 27.128 318.075 26.936C318.715 26.7227 319.184 26.4347 319.483 26.072C319.781 25.7093 319.931 25.2933 319.931 24.824C319.931 24.2267 319.696 23.7573 319.227 23.416C318.757 23.0533 318.139 22.7653 317.371 22.552C316.603 22.3173 315.749 22.104 314.811 21.912C313.893 21.6987 312.965 21.4427 312.027 21.144C311.109 20.8453 310.267 20.4613 309.499 19.992C308.731 19.5227 308.101 18.904 307.611 18.136C307.141 17.368 306.907 16.3867 306.907 15.192C306.907 13.912 307.248 12.7493 307.931 11.704C308.635 10.6373 309.68 9.79467 311.067 9.176C312.475 8.536 314.235 8.216 316.347 8.216C317.755 8.216 319.141 8.38667 320.507 8.728C321.872 9.048 323.077 9.53867 324.123 10.2L322.523 14.136C321.477 13.5387 320.432 13.1013 319.387 12.824C318.341 12.5253 317.317 12.376 316.315 12.376C315.312 12.376 314.491 12.4933 313.851 12.728C313.211 12.9627 312.752 13.272 312.475 13.656C312.197 14.0187 312.059 14.4453 312.059 14.936C312.059 15.512 312.293 15.9813 312.763 16.344C313.232 16.6853 313.851 16.9627 314.619 17.176C315.387 17.3893 316.229 17.6027 317.147 17.816C318.085 18.0293 319.013 18.2747 319.931 18.552C320.869 18.8293 321.723 19.2027 322.491 19.672C323.259 20.1413 323.877 20.76 324.347 21.528C324.837 22.296 325.083 23.2667 325.083 24.44C325.083 25.6987 324.731 26.8507 324.027 27.896C323.323 28.9413 322.267 29.784 320.859 30.424C319.472 31.064 317.712 31.384 315.579 31.384Z" fill="black"/>
<path d="M3 0L3 39" stroke="#F8D442" stroke-width="6"/>
</svg>
