<svg width="398" height="39" viewBox="0 0 398 39" fill="none" xmlns="http://www.w3.org/2000/svg">
<path d="M15.212 31L25.196 8.6H30.316L40.332 31H34.892L26.7 11.224H28.748L20.524 31H15.212ZM20.204 26.2L21.58 22.264H33.1L34.508 26.2H20.204ZM42.656 31V8.6H52.832C55.264 8.6 57.408 9.06933 59.264 10.008C61.12 10.9253 62.5707 12.216 63.616 13.88C64.6613 15.544 65.184 17.5173 65.184 19.8C65.184 22.0613 64.6613 24.0347 63.616 25.72C62.5707 27.384 61.12 28.6853 59.264 29.624C57.408 30.5413 55.264 31 52.832 31H42.656ZM47.84 26.744H52.576C54.0693 26.744 55.36 26.4667 56.448 25.912C57.5573 25.336 58.4107 24.5253 59.008 23.48C59.6267 22.4347 59.936 21.208 59.936 19.8C59.936 18.3707 59.6267 17.144 59.008 16.12C58.4107 15.0747 57.5573 14.2747 56.448 13.72C55.36 13.144 54.0693 12.856 52.576 12.856H47.84V26.744ZM69.0935 31V8.6H74.2775V31H69.0935ZM90.3135 31.384C88.5855 31.384 86.9748 31.1067 85.4815 30.552C84.0095 29.976 82.7295 29.1653 81.6415 28.12C80.5535 27.0747 79.7002 25.848 79.0815 24.44C78.4842 23.032 78.1855 21.4853 78.1855 19.8C78.1855 18.1147 78.4842 16.568 79.0815 15.16C79.7002 13.752 80.5535 12.5253 81.6415 11.48C82.7508 10.4347 84.0415 9.63467 85.5135 9.08C86.9855 8.504 88.5962 8.216 90.3455 8.216C92.2868 8.216 94.0362 8.55733 95.5935 9.24C97.1722 9.90133 98.4948 10.8827 99.5615 12.184L96.2335 15.256C95.4655 14.3813 94.6122 13.7307 93.6735 13.304C92.7348 12.856 91.7108 12.632 90.6015 12.632C89.5562 12.632 88.5962 12.8027 87.7215 13.144C86.8468 13.4853 86.0895 13.976 85.4495 14.616C84.8095 15.256 84.3082 16.0133 83.9455 16.888C83.6042 17.7627 83.4335 18.7333 83.4335 19.8C83.4335 20.8667 83.6042 21.8373 83.9455 22.712C84.3082 23.5867 84.8095 24.344 85.4495 24.984C86.0895 25.624 86.8468 26.1147 87.7215 26.456C88.5962 26.7973 89.5562 26.968 90.6015 26.968C91.7108 26.968 92.7348 26.7547 93.6735 26.328C94.6122 25.88 95.4655 25.208 96.2335 24.312L99.5615 27.384C98.4948 28.6853 97.1722 29.6773 95.5935 30.36C94.0362 31.0427 92.2762 31.384 90.3135 31.384ZM103.062 31V8.6H108.246V31H103.062ZM124.442 31.384C122.672 31.384 121.029 31.096 119.514 30.52C118.021 29.944 116.72 29.1333 115.61 28.088C114.522 27.0427 113.669 25.816 113.05 24.408C112.453 23 112.154 21.464 112.154 19.8C112.154 18.136 112.453 16.6 113.05 15.192C113.669 13.784 114.533 12.5573 115.642 11.512C116.752 10.4667 118.053 9.656 119.546 9.08C121.04 8.504 122.661 8.216 124.41 8.216C126.181 8.216 127.802 8.504 129.274 9.08C130.768 9.656 132.058 10.4667 133.146 11.512C134.256 12.5573 135.12 13.784 135.738 15.192C136.357 16.5787 136.666 18.1147 136.666 19.8C136.666 21.464 136.357 23.0107 135.738 24.44C135.12 25.848 134.256 27.0747 133.146 28.12C132.058 29.144 130.768 29.944 129.274 30.52C127.802 31.096 126.192 31.384 124.442 31.384ZM124.41 26.968C125.413 26.968 126.33 26.7973 127.162 26.456C128.016 26.1147 128.762 25.624 129.402 24.984C130.042 24.344 130.533 23.5867 130.874 22.712C131.237 21.8373 131.418 20.8667 131.418 19.8C131.418 18.7333 131.237 17.7627 130.874 16.888C130.533 16.0133 130.042 15.256 129.402 14.616C128.784 13.976 128.048 13.4853 127.194 13.144C126.341 12.8027 125.413 12.632 124.41 12.632C123.408 12.632 122.48 12.8027 121.626 13.144C120.794 13.4853 120.058 13.976 119.418 14.616C118.778 15.256 118.277 16.0133 117.914 16.888C117.573 17.7627 117.402 18.7333 117.402 19.8C117.402 20.8453 117.573 21.816 117.914 22.712C118.277 23.5867 118.768 24.344 119.386 24.984C120.026 25.624 120.773 26.1147 121.626 26.456C122.48 26.7973 123.408 26.968 124.41 26.968ZM140.562 31V8.6H144.85L158.066 24.728H155.986V8.6H161.106V31H156.85L143.602 14.872H145.682V31H140.562ZM163.462 31L173.446 8.6H178.566L188.582 31H183.142L174.95 11.224H176.998L168.774 31H163.462ZM168.454 26.2L169.83 22.264H181.35L182.758 26.2H168.454ZM190.906 31V8.6H200.602C202.607 8.6 204.335 8.93067 205.786 9.592C207.237 10.232 208.357 11.16 209.146 12.376C209.935 13.592 210.33 15.0427 210.33 16.728C210.33 18.392 209.935 19.832 209.146 21.048C208.357 22.2427 207.237 23.16 205.786 23.8C204.335 24.44 202.607 24.76 200.602 24.76H193.786L196.09 22.488V31H190.906ZM205.146 31L199.546 22.872H205.082L210.746 31H205.146ZM196.09 23.064L193.786 20.632H200.314C201.914 20.632 203.109 20.2907 203.898 19.608C204.687 18.904 205.082 17.944 205.082 16.728C205.082 15.4907 204.687 14.5307 203.898 13.848C203.109 13.1653 201.914 12.824 200.314 12.824H193.786L196.09 10.36V23.064ZM233.452 31.384C230.273 31.384 227.788 30.4987 225.996 28.728C224.204 26.9573 223.308 24.4293 223.308 21.144V8.6H228.492V20.952C228.492 23.0853 228.929 24.6213 229.804 25.56C230.678 26.4987 231.905 26.968 233.484 26.968C235.062 26.968 236.289 26.4987 237.164 25.56C238.038 24.6213 238.476 23.0853 238.476 20.952V8.6H243.596V21.144C243.596 24.4293 242.7 26.9573 240.908 28.728C239.116 30.4987 236.63 31.384 233.452 31.384ZM256.079 31.384C254.287 31.384 252.569 31.1493 250.927 30.68C249.284 30.1893 247.961 29.56 246.959 28.792L248.719 24.888C249.679 25.5707 250.809 26.136 252.111 26.584C253.433 27.0107 254.767 27.224 256.111 27.224C257.135 27.224 257.956 27.128 258.575 26.936C259.215 26.7227 259.684 26.4347 259.983 26.072C260.281 25.7093 260.431 25.2933 260.431 24.824C260.431 24.2267 260.196 23.7573 259.727 23.416C259.257 23.0533 258.639 22.7653 257.871 22.552C257.103 22.3173 256.249 22.104 255.311 21.912C254.393 21.6987 253.465 21.4427 252.527 21.144C251.609 20.8453 250.767 20.4613 249.999 19.992C249.231 19.5227 248.601 18.904 248.111 18.136C247.641 17.368 247.407 16.3867 247.407 15.192C247.407 13.912 247.748 12.7493 248.431 11.704C249.135 10.6373 250.18 9.79467 251.567 9.176C252.975 8.536 254.735 8.216 256.847 8.216C258.255 8.216 259.641 8.38667 261.007 8.728C262.372 9.048 263.577 9.53867 264.623 10.2L263.023 14.136C261.977 13.5387 260.932 13.1013 259.887 12.824C258.841 12.5253 257.817 12.376 256.815 12.376C255.812 12.376 254.991 12.4933 254.351 12.728C253.711 12.9627 253.252 13.272 252.975 13.656C252.697 14.0187 252.559 14.4453 252.559 14.936C252.559 15.512 252.793 15.9813 253.263 16.344C253.732 16.6853 254.351 16.9627 255.119 17.176C255.887 17.3893 256.729 17.6027 257.647 17.816C258.585 18.0293 259.513 18.2747 260.431 18.552C261.369 18.8293 262.223 19.2027 262.991 19.672C263.759 20.1413 264.377 20.76 264.847 21.528C265.337 22.296 265.583 23.2667 265.583 24.44C265.583 25.6987 265.231 26.8507 264.527 27.896C263.823 28.9413 262.767 29.784 261.359 30.424C259.972 31.064 258.212 31.384 256.079 31.384ZM279.077 31.384C275.898 31.384 273.413 30.4987 271.621 28.728C269.829 26.9573 268.933 24.4293 268.933 21.144V8.6H274.117V20.952C274.117 23.0853 274.554 24.6213 275.429 25.56C276.303 26.4987 277.53 26.968 279.109 26.968C280.687 26.968 281.914 26.4987 282.789 25.56C283.663 24.6213 284.101 23.0853 284.101 20.952V8.6H289.221V21.144C289.221 24.4293 288.325 26.9573 286.533 28.728C284.741 30.4987 282.255 31.384 279.077 31.384ZM290.931 31L300.915 8.6H306.035L316.051 31H310.611L302.419 11.224H304.467L296.243 31H290.931ZM295.923 26.2L297.299 22.264H308.819L310.227 26.2H295.923ZM300.563 6.776L304.883 2.168H310.259L304.467 6.776H300.563ZM318.375 31V8.6H328.071C330.076 8.6 331.804 8.93067 333.255 9.592C334.705 10.232 335.825 11.16 336.615 12.376C337.404 13.592 337.799 15.0427 337.799 16.728C337.799 18.392 337.404 19.832 336.615 21.048C335.825 22.2427 334.705 23.16 333.255 23.8C331.804 24.44 330.076 24.76 328.071 24.76H321.255L323.559 22.488V31H318.375ZM332.615 31L327.015 22.872H332.551L338.215 31H332.615ZM323.559 23.064L321.255 20.632H327.783C329.383 20.632 330.577 20.2907 331.367 19.608C332.156 18.904 332.551 17.944 332.551 16.728C332.551 15.4907 332.156 14.5307 331.367 13.848C330.577 13.1653 329.383 12.824 327.783 12.824H321.255L323.559 10.36V23.064ZM341.906 31V8.6H347.09V31H341.906ZM363.286 31.384C361.515 31.384 359.873 31.096 358.358 30.52C356.865 29.944 355.563 29.1333 354.454 28.088C353.366 27.0427 352.513 25.816 351.894 24.408C351.297 23 350.998 21.464 350.998 19.8C350.998 18.136 351.297 16.6 351.894 15.192C352.513 13.784 353.377 12.5573 354.486 11.512C355.595 10.4667 356.897 9.656 358.39 9.08C359.883 8.504 361.505 8.216 363.254 8.216C365.025 8.216 366.646 8.504 368.118 9.08C369.611 9.656 370.902 10.4667 371.99 11.512C373.099 12.5573 373.963 13.784 374.582 15.192C375.201 16.5787 375.51 18.1147 375.51 19.8C375.51 21.464 375.201 23.0107 374.582 24.44C373.963 25.848 373.099 27.0747 371.99 28.12C370.902 29.144 369.611 29.944 368.118 30.52C366.646 31.096 365.035 31.384 363.286 31.384ZM363.254 26.968C364.257 26.968 365.174 26.7973 366.006 26.456C366.859 26.1147 367.606 25.624 368.246 24.984C368.886 24.344 369.377 23.5867 369.718 22.712C370.081 21.8373 370.262 20.8667 370.262 19.8C370.262 18.7333 370.081 17.7627 369.718 16.888C369.377 16.0133 368.886 15.256 368.246 14.616C367.627 13.976 366.891 13.4853 366.038 13.144C365.185 12.8027 364.257 12.632 363.254 12.632C362.251 12.632 361.323 12.8027 360.47 13.144C359.638 13.4853 358.902 13.976 358.262 14.616C357.622 15.256 357.121 16.0133 356.758 16.888C356.417 17.7627 356.246 18.7333 356.246 19.8C356.246 20.8453 356.417 21.816 356.758 22.712C357.121 23.5867 357.611 24.344 358.23 24.984C358.87 25.624 359.617 26.1147 360.47 26.456C361.323 26.7973 362.251 26.968 363.254 26.968ZM386.766 31.384C384.974 31.384 383.257 31.1493 381.614 30.68C379.971 30.1893 378.649 29.56 377.646 28.792L379.406 24.888C380.366 25.5707 381.497 26.136 382.798 26.584C384.121 27.0107 385.454 27.224 386.798 27.224C387.822 27.224 388.643 27.128 389.262 26.936C389.902 26.7227 390.371 26.4347 390.67 26.072C390.969 25.7093 391.118 25.2933 391.118 24.824C391.118 24.2267 390.883 23.7573 390.414 23.416C389.945 23.0533 389.326 22.7653 388.558 22.552C387.79 22.3173 386.937 22.104 385.998 21.912C385.081 21.6987 384.153 21.4427 383.214 21.144C382.297 20.8453 381.454 20.4613 380.686 19.992C379.918 19.5227 379.289 18.904 378.798 18.136C378.329 17.368 378.094 16.3867 378.094 15.192C378.094 13.912 378.435 12.7493 379.118 11.704C379.822 10.6373 380.867 9.79467 382.254 9.176C383.662 8.536 385.422 8.216 387.534 8.216C388.942 8.216 390.329 8.38667 391.694 8.728C393.059 9.048 394.265 9.53867 395.31 10.2L393.71 14.136C392.665 13.5387 391.619 13.1013 390.574 12.824C389.529 12.5253 388.505 12.376 387.502 12.376C386.499 12.376 385.678 12.4933 385.038 12.728C384.398 12.9627 383.939 13.272 383.662 13.656C383.385 14.0187 383.246 14.4453 383.246 14.936C383.246 15.512 383.481 15.9813 383.95 16.344C384.419 16.6853 385.038 16.9627 385.806 17.176C386.574 17.3893 387.417 17.6027 388.334 17.816C389.273 18.0293 390.201 18.2747 391.118 18.552C392.057 18.8293 392.91 19.2027 393.678 19.672C394.446 20.1413 395.065 20.76 395.534 21.528C396.025 22.296 396.27 23.2667 396.27 24.44C396.27 25.6987 395.918 26.8507 395.214 27.896C394.51 28.9413 393.454 29.784 392.046 30.424C390.659 31.064 388.899 31.384 386.766 31.384Z" fill="black"/>
<path d="M3 0L3 39" stroke="#F8D442" stroke-width="6"/>
</svg>
