<svg width="433" height="39" viewBox="0 0 433 39" fill="none" xmlns="http://www.w3.org/2000/svg">
<path d="M28.876 31.384C27.148 31.384 25.5373 31.1067 24.044 30.552C22.572 29.976 21.292 29.1653 20.204 28.12C19.116 27.0747 18.2627 25.848 17.644 24.44C17.0467 23.032 16.748 21.4853 16.748 19.8C16.748 18.1147 17.0467 16.568 17.644 15.16C18.2627 13.752 19.116 12.5253 20.204 11.48C21.3133 10.4347 22.604 9.63467 24.076 9.08C25.548 8.504 27.1587 8.216 28.908 8.216C30.8493 8.216 32.5987 8.55733 34.156 9.24C35.7347 9.90133 37.0573 10.8827 38.124 12.184L34.796 15.256C34.028 14.3813 33.1747 13.7307 32.236 13.304C31.2973 12.856 30.2733 12.632 29.164 12.632C28.1187 12.632 27.1587 12.8027 26.284 13.144C25.4093 13.4853 24.652 13.976 24.012 14.616C23.372 15.256 22.8707 16.0133 22.508 16.888C22.1667 17.7627 21.996 18.7333 21.996 19.8C21.996 20.8667 22.1667 21.8373 22.508 22.712C22.8707 23.5867 23.372 24.344 24.012 24.984C24.652 25.624 25.4093 26.1147 26.284 26.456C27.1587 26.7973 28.1187 26.968 29.164 26.968C30.2733 26.968 31.2973 26.7547 32.236 26.328C33.1747 25.88 34.028 25.208 34.796 24.312L38.124 27.384C37.0573 28.6853 35.7347 29.6773 34.156 30.36C32.5987 31.0427 30.8387 31.384 28.876 31.384ZM38.2745 31L48.2585 8.6H53.3785L63.3945 31H57.9545L49.7625 11.224H51.8105L43.5865 31H38.2745ZM43.2665 26.2L44.6425 22.264H56.1625L57.5705 26.2H43.2665ZM65.7185 31V8.6H75.8945C78.3265 8.6 80.4705 9.06933 82.3265 10.008C84.1825 10.9253 85.6332 12.216 86.6785 13.88C87.7238 15.544 88.2465 17.5173 88.2465 19.8C88.2465 22.0613 87.7238 24.0347 86.6785 25.72C85.6332 27.384 84.1825 28.6853 82.3265 29.624C80.4705 30.5413 78.3265 31 75.8945 31H65.7185ZM70.9025 26.744H75.6385C77.1318 26.744 78.4225 26.4667 79.5105 25.912C80.6198 25.336 81.4732 24.5253 82.0705 23.48C82.6892 22.4347 82.9985 21.208 82.9985 19.8C82.9985 18.3707 82.6892 17.144 82.0705 16.12C81.4732 15.0747 80.6198 14.2747 79.5105 13.72C78.4225 13.144 77.1318 12.856 75.6385 12.856H70.9025V26.744ZM88.8995 31L98.8835 8.6H104.004L114.02 31H108.58L100.388 11.224H102.436L94.2115 31H88.8995ZM93.8915 26.2L95.2675 22.264H106.788L108.196 26.2H93.8915ZM123.704 31.384C121.912 31.384 120.194 31.1493 118.552 30.68C116.909 30.1893 115.586 29.56 114.584 28.792L116.344 24.888C117.304 25.5707 118.434 26.136 119.736 26.584C121.058 27.0107 122.392 27.224 123.736 27.224C124.76 27.224 125.581 27.128 126.2 26.936C126.84 26.7227 127.309 26.4347 127.608 26.072C127.906 25.7093 128.056 25.2933 128.056 24.824C128.056 24.2267 127.821 23.7573 127.352 23.416C126.882 23.0533 126.264 22.7653 125.496 22.552C124.728 22.3173 123.874 22.104 122.936 21.912C122.018 21.6987 121.09 21.4427 120.152 21.144C119.234 20.8453 118.392 20.4613 117.624 19.992C116.856 19.5227 116.226 18.904 115.736 18.136C115.266 17.368 115.032 16.3867 115.032 15.192C115.032 13.912 115.373 12.7493 116.056 11.704C116.76 10.6373 117.805 9.79467 119.192 9.176C120.6 8.536 122.36 8.216 124.472 8.216C125.88 8.216 127.266 8.38667 128.632 8.728C129.997 9.048 131.202 9.53867 132.248 10.2L130.648 14.136C129.602 13.5387 128.557 13.1013 127.512 12.824C126.466 12.5253 125.442 12.376 124.44 12.376C123.437 12.376 122.616 12.4933 121.976 12.728C121.336 12.9627 120.877 13.272 120.6 13.656C120.322 14.0187 120.184 14.4453 120.184 14.936C120.184 15.512 120.418 15.9813 120.888 16.344C121.357 16.6853 121.976 16.9627 122.744 17.176C123.512 17.3893 124.354 17.6027 125.272 17.816C126.21 18.0293 127.138 18.2747 128.056 18.552C128.994 18.8293 129.848 19.2027 130.616 19.672C131.384 20.1413 132.002 20.76 132.472 21.528C132.962 22.296 133.208 23.2667 133.208 24.44C133.208 25.6987 132.856 26.8507 132.152 27.896C131.448 28.9413 130.392 29.784 128.984 30.424C127.597 31.064 125.837 31.384 123.704 31.384ZM141.077 31V12.824H133.909V8.6H153.429V12.824H146.261V31H141.077ZM156.219 31V8.6H165.915C167.92 8.6 169.648 8.93067 171.099 9.592C172.549 10.232 173.669 11.16 174.459 12.376C175.248 13.592 175.643 15.0427 175.643 16.728C175.643 18.392 175.248 19.832 174.459 21.048C173.669 22.2427 172.549 23.16 171.099 23.8C169.648 24.44 167.92 24.76 165.915 24.76H159.099L161.403 22.488V31H156.219ZM170.458 31L164.859 22.872H170.395L176.059 31H170.458ZM161.403 23.064L159.099 20.632H165.627C167.227 20.632 168.421 20.2907 169.211 19.608C170 18.904 170.395 17.944 170.395 16.728C170.395 15.4907 170 14.5307 169.211 13.848C168.421 13.1653 167.227 12.824 165.627 12.824H159.099L161.403 10.36V23.064ZM190.63 31.384C188.859 31.384 187.216 31.096 185.702 30.52C184.208 29.944 182.907 29.1333 181.798 28.088C180.71 27.0427 179.856 25.816 179.238 24.408C178.64 23 178.342 21.464 178.342 19.8C178.342 18.136 178.64 16.6 179.238 15.192C179.856 13.784 180.72 12.5573 181.83 11.512C182.939 10.4667 184.24 9.656 185.734 9.08C187.227 8.504 188.848 8.216 190.598 8.216C192.368 8.216 193.99 8.504 195.462 9.08C196.955 9.656 198.246 10.4667 199.334 11.512C200.443 12.5573 201.307 13.784 201.926 15.192C202.544 16.5787 202.854 18.1147 202.854 19.8C202.854 21.464 202.544 23.0107 201.926 24.44C201.307 25.848 200.443 27.0747 199.334 28.12C198.246 29.144 196.955 29.944 195.462 30.52C193.99 31.096 192.379 31.384 190.63 31.384ZM190.598 26.968C191.6 26.968 192.518 26.7973 193.35 26.456C194.203 26.1147 194.95 25.624 195.59 24.984C196.23 24.344 196.72 23.5867 197.062 22.712C197.424 21.8373 197.606 20.8667 197.606 19.8C197.606 18.7333 197.424 17.7627 197.062 16.888C196.72 16.0133 196.23 15.256 195.59 14.616C194.971 13.976 194.235 13.4853 193.382 13.144C192.528 12.8027 191.6 12.632 190.598 12.632C189.595 12.632 188.667 12.8027 187.814 13.144C186.982 13.4853 186.246 13.976 185.606 14.616C184.966 15.256 184.464 16.0133 184.102 16.888C183.76 17.7627 183.59 18.7333 183.59 19.8C183.59 20.8453 183.76 21.816 184.102 22.712C184.464 23.5867 184.955 24.344 185.574 24.984C186.214 25.624 186.96 26.1147 187.814 26.456C188.667 26.7973 189.595 26.968 190.598 26.968ZM215.812 31V8.6H225.988C228.42 8.6 230.564 9.06933 232.42 10.008C234.276 10.9253 235.727 12.216 236.772 13.88C237.818 15.544 238.34 17.5173 238.34 19.8C238.34 22.0613 237.818 24.0347 236.772 25.72C235.727 27.384 234.276 28.6853 232.42 29.624C230.564 30.5413 228.42 31 225.988 31H215.812ZM220.996 26.744H225.732C227.226 26.744 228.516 26.4667 229.604 25.912C230.714 25.336 231.567 24.5253 232.164 23.48C232.783 22.4347 233.092 21.208 233.092 19.8C233.092 18.3707 232.783 17.144 232.164 16.12C231.567 15.0747 230.714 14.2747 229.604 13.72C228.516 13.144 227.226 12.856 225.732 12.856H220.996V26.744ZM253.13 31.384C251.359 31.384 249.716 31.096 248.202 30.52C246.708 29.944 245.407 29.1333 244.298 28.088C243.21 27.0427 242.356 25.816 241.738 24.408C241.14 23 240.842 21.464 240.842 19.8C240.842 18.136 241.14 16.6 241.738 15.192C242.356 13.784 243.22 12.5573 244.33 11.512C245.439 10.4667 246.74 9.656 248.234 9.08C249.727 8.504 251.348 8.216 253.098 8.216C254.868 8.216 256.49 8.504 257.962 9.08C259.455 9.656 260.746 10.4667 261.834 11.512C262.943 12.5573 263.807 13.784 264.426 15.192C265.044 16.5787 265.354 18.1147 265.354 19.8C265.354 21.464 265.044 23.0107 264.426 24.44C263.807 25.848 262.943 27.0747 261.834 28.12C260.746 29.144 259.455 29.944 257.962 30.52C256.49 31.096 254.879 31.384 253.13 31.384ZM253.098 26.968C254.1 26.968 255.018 26.7973 255.85 26.456C256.703 26.1147 257.45 25.624 258.09 24.984C258.73 24.344 259.22 23.5867 259.562 22.712C259.924 21.8373 260.106 20.8667 260.106 19.8C260.106 18.7333 259.924 17.7627 259.562 16.888C259.22 16.0133 258.73 15.256 258.09 14.616C257.471 13.976 256.735 13.4853 255.882 13.144C255.028 12.8027 254.1 12.632 253.098 12.632C252.095 12.632 251.167 12.8027 250.314 13.144C249.482 13.4853 248.746 13.976 248.106 14.616C247.466 15.256 246.964 16.0133 246.602 16.888C246.26 17.7627 246.09 18.7333 246.09 19.8C246.09 20.8453 246.26 21.816 246.602 22.712C246.964 23.5867 247.455 24.344 248.074 24.984C248.714 25.624 249.46 26.1147 250.314 26.456C251.167 26.7973 252.095 26.968 253.098 26.968ZM288.264 31.384C285.086 31.384 282.6 30.4987 280.808 28.728C279.016 26.9573 278.12 24.4293 278.12 21.144V8.6H283.304V20.952C283.304 23.0853 283.742 24.6213 284.616 25.56C285.491 26.4987 286.718 26.968 288.296 26.968C289.875 26.968 291.102 26.4987 291.976 25.56C292.851 24.6213 293.288 23.0853 293.288 20.952V8.6H298.408V21.144C298.408 24.4293 297.512 26.9573 295.72 28.728C293.928 30.4987 291.443 31.384 288.264 31.384ZM310.891 31.384C309.099 31.384 307.382 31.1493 305.739 30.68C304.096 30.1893 302.774 29.56 301.771 28.792L303.531 24.888C304.491 25.5707 305.622 26.136 306.923 26.584C308.246 27.0107 309.579 27.224 310.923 27.224C311.947 27.224 312.768 27.128 313.387 26.936C314.027 26.7227 314.496 26.4347 314.795 26.072C315.094 25.7093 315.243 25.2933 315.243 24.824C315.243 24.2267 315.008 23.7573 314.539 23.416C314.07 23.0533 313.451 22.7653 312.683 22.552C311.915 22.3173 311.062 22.104 310.123 21.912C309.206 21.6987 308.278 21.4427 307.339 21.144C306.422 20.8453 305.579 20.4613 304.811 19.992C304.043 19.5227 303.414 18.904 302.923 18.136C302.454 17.368 302.219 16.3867 302.219 15.192C302.219 13.912 302.56 12.7493 303.243 11.704C303.947 10.6373 304.992 9.79467 306.379 9.176C307.787 8.536 309.547 8.216 311.659 8.216C313.067 8.216 314.454 8.38667 315.819 8.728C317.184 9.048 318.39 9.53867 319.435 10.2L317.835 14.136C316.79 13.5387 315.744 13.1013 314.699 12.824C313.654 12.5253 312.63 12.376 311.627 12.376C310.624 12.376 309.803 12.4933 309.163 12.728C308.523 12.9627 308.064 13.272 307.787 13.656C307.51 14.0187 307.371 14.4453 307.371 14.936C307.371 15.512 307.606 15.9813 308.075 16.344C308.544 16.6853 309.163 16.9627 309.931 17.176C310.699 17.3893 311.542 17.6027 312.459 17.816C313.398 18.0293 314.326 18.2747 315.243 18.552C316.182 18.8293 317.035 19.2027 317.803 19.672C318.571 20.1413 319.19 20.76 319.659 21.528C320.15 22.296 320.395 23.2667 320.395 24.44C320.395 25.6987 320.043 26.8507 319.339 27.896C318.635 28.9413 317.579 29.784 316.171 30.424C314.784 31.064 313.024 31.384 310.891 31.384ZM333.889 31.384C330.711 31.384 328.225 30.4987 326.433 28.728C324.641 26.9573 323.745 24.4293 323.745 21.144V8.6H328.929V20.952C328.929 23.0853 329.367 24.6213 330.241 25.56C331.116 26.4987 332.343 26.968 333.921 26.968C335.5 26.968 336.727 26.4987 337.601 25.56C338.476 24.6213 338.913 23.0853 338.913 20.952V8.6H344.033V21.144C344.033 24.4293 343.137 26.9573 341.345 28.728C339.553 30.4987 337.068 31.384 333.889 31.384ZM345.743 31L355.727 8.6H360.847L370.863 31H365.423L357.231 11.224H359.279L351.055 31H345.743ZM350.735 26.2L352.111 22.264H363.631L365.039 26.2H350.735ZM355.375 6.776L359.695 2.168H365.071L359.279 6.776H355.375ZM373.187 31V8.6H382.883C384.889 8.6 386.617 8.93067 388.067 9.592C389.518 10.232 390.638 11.16 391.427 12.376C392.217 13.592 392.611 15.0427 392.611 16.728C392.611 18.392 392.217 19.832 391.427 21.048C390.638 22.2427 389.518 23.16 388.067 23.8C386.617 24.44 384.889 24.76 382.883 24.76H376.067L378.371 22.488V31H373.187ZM387.427 31L381.827 22.872H387.363L393.027 31H387.427ZM378.371 23.064L376.067 20.632H382.595C384.195 20.632 385.39 20.2907 386.179 19.608C386.969 18.904 387.363 17.944 387.363 16.728C387.363 15.4907 386.969 14.5307 386.179 13.848C385.39 13.1653 384.195 12.824 382.595 12.824H376.067L378.371 10.36V23.064ZM396.719 31V8.6H401.903V31H396.719ZM418.099 31.384C416.328 31.384 414.685 31.096 413.171 30.52C411.677 29.944 410.376 29.1333 409.266 28.088C408.179 27.0427 407.325 25.816 406.707 24.408C406.109 23 405.811 21.464 405.811 19.8C405.811 18.136 406.109 16.6 406.707 15.192C407.325 13.784 408.189 12.5573 409.299 11.512C410.408 10.4667 411.709 9.656 413.203 9.08C414.696 8.504 416.317 8.216 418.067 8.216C419.837 8.216 421.458 8.504 422.931 9.08C424.424 9.656 425.715 10.4667 426.803 11.512C427.912 12.5573 428.776 13.784 429.395 15.192C430.013 16.5787 430.323 18.1147 430.323 19.8C430.323 21.464 430.013 23.0107 429.395 24.44C428.776 25.848 427.912 27.0747 426.803 28.12C425.715 29.144 424.424 29.944 422.931 30.52C421.458 31.096 419.848 31.384 418.099 31.384ZM418.067 26.968C419.069 26.968 419.987 26.7973 420.819 26.456C421.672 26.1147 422.419 25.624 423.059 24.984C423.699 24.344 424.189 23.5867 424.531 22.712C424.893 21.8373 425.075 20.8667 425.075 19.8C425.075 18.7333 424.893 17.7627 424.531 16.888C424.189 16.0133 423.699 15.256 423.059 14.616C422.44 13.976 421.704 13.4853 420.851 13.144C419.997 12.8027 419.069 12.632 418.067 12.632C417.064 12.632 416.136 12.8027 415.283 13.144C414.451 13.4853 413.715 13.976 413.075 14.616C412.435 15.256 411.933 16.0133 411.571 16.888C411.229 17.7627 411.059 18.7333 411.059 19.8C411.059 20.8453 411.229 21.816 411.571 22.712C411.933 23.5867 412.424 24.344 413.043 24.984C413.683 25.624 414.429 26.1147 415.283 26.456C416.136 26.7973 417.064 26.968 418.067 26.968Z" fill="black"/>
<path d="M3 0L3 39" stroke="#F8D442" stroke-width="6"/>
</svg>
