<svg width="456" height="71" viewBox="0 0 456 71" fill="none" xmlns="http://www.w3.org/2000/svg">
<path d="M15.5942 31L25.5782 8.6H30.6982L40.7142 31H35.2742L27.0822 11.224H29.1302L20.9062 31H15.5942ZM20.5862 26.2L21.9622 22.264H33.4822L34.8902 26.2H20.5862ZM43.0382 31V8.6H52.7342C54.7396 8.6 56.4676 8.93067 57.9182 9.592C59.3689 10.232 60.4889 11.16 61.2782 12.376C62.0676 13.592 62.4622 15.0427 62.4622 16.728C62.4622 18.392 62.0676 19.832 61.2782 21.048C60.4889 22.2427 59.3689 23.16 57.9182 23.8C56.4676 24.44 54.7396 24.76 52.7342 24.76H45.9182L48.2222 22.488V31H43.0382ZM57.2782 31L51.6782 22.872H57.2142L62.8782 31H57.2782ZM48.2222 23.064L45.9182 20.632H52.4462C54.0462 20.632 55.2409 20.2907 56.0302 19.608C56.8196 18.904 57.2142 17.944 57.2142 16.728C57.2142 15.4907 56.8196 14.5307 56.0302 13.848C55.2409 13.1653 54.0462 12.824 52.4462 12.824H45.9182L48.2222 10.36V23.064ZM71.3375 17.624H82.1215V21.656H71.3375V17.624ZM71.7215 26.84H83.9135V31H66.5695V8.6H83.4975V12.76H71.7215V26.84ZM102.669 31V21.848L103.853 24.984L93.9967 8.6H99.5007L107.053 21.176H103.885L111.469 8.6H116.557L106.701 24.984L107.853 21.848V31H102.669ZM128.637 31.384C126.866 31.384 125.224 31.096 123.709 30.52C122.216 29.944 120.914 29.1333 119.805 28.088C118.717 27.0427 117.864 25.816 117.245 24.408C116.648 23 116.349 21.464 116.349 19.8C116.349 18.136 116.648 16.6 117.245 15.192C117.864 13.784 118.728 12.5573 119.837 11.512C120.946 10.4667 122.248 9.656 123.741 9.08C125.234 8.504 126.856 8.216 128.605 8.216C130.376 8.216 131.997 8.504 133.469 9.08C134.962 9.656 136.253 10.4667 137.341 11.512C138.45 12.5573 139.314 13.784 139.933 15.192C140.552 16.5787 140.861 18.1147 140.861 19.8C140.861 21.464 140.552 23.0107 139.933 24.44C139.314 25.848 138.45 27.0747 137.341 28.12C136.253 29.144 134.962 29.944 133.469 30.52C131.997 31.096 130.386 31.384 128.637 31.384ZM128.605 26.968C129.608 26.968 130.525 26.7973 131.357 26.456C132.21 26.1147 132.957 25.624 133.597 24.984C134.237 24.344 134.728 23.5867 135.069 22.712C135.432 21.8373 135.613 20.8667 135.613 19.8C135.613 18.7333 135.432 17.7627 135.069 16.888C134.728 16.0133 134.237 15.256 133.597 14.616C132.978 13.976 132.242 13.4853 131.389 13.144C130.536 12.8027 129.608 12.632 128.605 12.632C127.602 12.632 126.674 12.8027 125.821 13.144C124.989 13.4853 124.253 13.976 123.613 14.616C122.973 15.256 122.472 16.0133 122.109 16.888C121.768 17.7627 121.597 18.7333 121.597 19.8C121.597 20.8453 121.768 21.816 122.109 22.712C122.472 23.5867 122.962 24.344 123.581 24.984C124.221 25.624 124.968 26.1147 125.821 26.456C126.674 26.7973 127.602 26.968 128.605 26.968ZM154.709 31.384C151.53 31.384 149.045 30.4987 147.253 28.728C145.461 26.9573 144.565 24.4293 144.565 21.144V8.6H149.749V20.952C149.749 23.0853 150.186 24.6213 151.061 25.56C151.936 26.4987 153.162 26.968 154.741 26.968C156.32 26.968 157.546 26.4987 158.421 25.56C159.296 24.6213 159.733 23.0853 159.733 20.952V8.6H164.853V21.144C164.853 24.4293 163.957 26.9573 162.165 28.728C160.373 30.4987 157.888 31.384 154.709 31.384ZM179.038 31V8.6H184.222V26.776H195.454V31H179.038ZM198.351 31V8.6H203.535V31H198.351ZM215.477 31L205.813 8.6H211.413L219.861 28.44H216.565L225.141 8.6H230.293L220.597 31H215.477ZM232.163 31V8.6H237.347V31H232.163ZM242.663 31V8.6H246.951L260.167 24.728H258.087V8.6H263.207V31H258.951L245.703 14.872H247.783V31H242.663ZM279.323 31.384C277.552 31.384 275.92 31.1067 274.427 30.552C272.955 29.976 271.664 29.1653 270.555 28.12C269.467 27.0747 268.614 25.848 267.995 24.44C267.398 23.032 267.099 21.4853 267.099 19.8C267.099 18.1147 267.398 16.568 267.995 15.16C268.614 13.752 269.478 12.5253 270.587 11.48C271.696 10.4347 272.998 9.63467 274.491 9.08C275.984 8.504 277.627 8.216 279.419 8.216C281.403 8.216 283.184 8.54667 284.763 9.208C286.363 9.86933 287.707 10.8293 288.795 12.088L285.467 15.16C284.656 14.3067 283.771 13.6773 282.811 13.272C281.851 12.8453 280.806 12.632 279.675 12.632C278.587 12.632 277.595 12.8027 276.699 13.144C275.803 13.4853 275.024 13.976 274.363 14.616C273.723 15.256 273.222 16.0133 272.859 16.888C272.518 17.7627 272.347 18.7333 272.347 19.8C272.347 20.8453 272.518 21.8053 272.859 22.68C273.222 23.5547 273.723 24.3227 274.363 24.984C275.024 25.624 275.792 26.1147 276.667 26.456C277.563 26.7973 278.544 26.968 279.611 26.968C280.635 26.968 281.627 26.808 282.587 26.488C283.568 26.1467 284.518 25.5813 285.435 24.792L288.379 28.536C287.163 29.4533 285.744 30.1573 284.123 30.648C282.523 31.1387 280.923 31.384 279.323 31.384ZM283.643 27.864V19.448H288.379V28.536L283.643 27.864ZM15.5942 70L25.5782 47.6H30.6982L40.7142 70H35.2742L27.0822 50.224H29.1302L20.9062 70H15.5942ZM20.5862 65.2L21.9622 61.264H33.4822L34.8902 65.2H20.5862ZM43.0382 70V47.6H48.2222V65.776H59.4542V70H43.0382ZM62.3507 70V47.6H72.0467C74.0521 47.6 75.7801 47.9307 77.2307 48.592C78.6814 49.232 79.8014 50.16 80.5907 51.376C81.3801 52.592 81.7747 54.0427 81.7747 55.728C81.7747 57.392 81.3801 58.832 80.5907 60.048C79.8014 61.2427 78.6814 62.16 77.2307 62.8C75.7801 63.44 74.0521 63.76 72.0467 63.76H65.2307L67.5347 61.488V70H62.3507ZM76.5907 70L70.9907 61.872H76.5267L82.1907 70H76.5907ZM67.5347 62.064L65.2307 59.632H71.7587C73.3587 59.632 74.5534 59.2907 75.3427 58.608C76.1321 57.904 76.5267 56.944 76.5267 55.728C76.5267 54.4907 76.1321 53.5307 75.3427 52.848C74.5534 52.1653 73.3587 51.824 71.7587 51.824H65.2307L67.5347 49.36V62.064ZM90.65 56.624H101.434V60.656H90.65V56.624ZM91.034 65.84H103.226V70H85.882V47.6H102.81V51.76H91.034V65.84ZM104.407 70L114.391 47.6H119.511L129.527 70H124.087L115.895 50.224H117.943L109.719 70H104.407ZM109.399 65.2L110.775 61.264H122.295L123.703 65.2H109.399ZM131.851 70V47.6H142.027C144.459 47.6 146.603 48.0693 148.459 49.008C150.315 49.9253 151.765 51.216 152.811 52.88C153.856 54.544 154.379 56.5173 154.379 58.8C154.379 61.0613 153.856 63.0347 152.811 64.72C151.765 66.384 150.315 67.6853 148.459 68.624C146.603 69.5413 144.459 70 142.027 70H131.851ZM137.035 65.744H141.771C143.264 65.744 144.555 65.4667 145.643 64.912C146.752 64.336 147.605 63.5253 148.203 62.48C148.821 61.4347 149.131 60.208 149.131 58.8C149.131 57.3707 148.821 56.144 148.203 55.12C147.605 54.0747 146.752 53.2747 145.643 52.72C144.555 52.144 143.264 51.856 141.771 51.856H137.035V65.744ZM162.887 70V60.848L164.071 63.984L154.215 47.6H159.719L167.271 60.176H164.103L171.687 47.6H176.775L166.919 63.984L168.071 60.848V70H162.887ZM183.232 62.224C183.232 61.4773 183.35 60.816 183.584 60.24C183.84 59.664 184.15 59.152 184.512 58.704C184.896 58.256 185.302 57.84 185.728 57.456C186.155 57.072 186.55 56.7093 186.912 56.368C187.296 56.0053 187.606 55.632 187.84 55.248C188.096 54.864 188.224 54.4373 188.224 53.968C188.224 53.2 187.904 52.5813 187.264 52.112C186.646 51.6427 185.814 51.408 184.768 51.408C183.766 51.408 182.87 51.6213 182.08 52.048C181.291 52.4533 180.64 53.0293 180.128 53.776L176.256 51.504C177.11 50.2027 178.294 49.168 179.808 48.4C181.323 47.6107 183.158 47.216 185.312 47.216C186.912 47.216 188.32 47.4507 189.536 47.92C190.752 48.368 191.702 49.0293 192.384 49.904C193.088 50.7787 193.44 51.856 193.44 53.136C193.44 53.968 193.312 54.704 193.056 55.344C192.8 55.984 192.47 56.5387 192.064 57.008C191.659 57.4773 191.222 57.9147 190.752 58.32C190.304 58.7253 189.878 59.12 189.472 59.504C189.067 59.888 188.726 60.2933 188.448 60.72C188.192 61.1467 188.064 61.648 188.064 62.224H183.232ZM185.664 70.256C184.768 70.256 184.032 69.968 183.456 69.392C182.88 68.816 182.592 68.1333 182.592 67.344C182.592 66.5333 182.88 65.8613 183.456 65.328C184.032 64.7733 184.768 64.496 185.664 64.496C186.582 64.496 187.318 64.7733 187.872 65.328C188.448 65.8613 188.736 66.5333 188.736 67.344C188.736 68.1333 188.448 68.816 187.872 69.392C187.318 69.968 186.582 70.256 185.664 70.256Z" fill="black"/>
<path d="M3 3L3 40" stroke="#F8D442" stroke-width="6"/>
</svg>
