<svg width="351" height="39" viewBox="0 0 351 39" fill="none" xmlns="http://www.w3.org/2000/svg">
<path d="M18.156 31V8.6H23.34V26.776H34.572V31H18.156ZM47.9735 31.384C46.2028 31.384 44.5602 31.096 43.0455 30.52C41.5522 29.944 40.2508 29.1333 39.1415 28.088C38.0535 27.0427 37.2002 25.816 36.5815 24.408C35.9842 23 35.6855 21.464 35.6855 19.8C35.6855 18.136 35.9842 16.6 36.5815 15.192C37.2002 13.784 38.0642 12.5573 39.1735 11.512C40.2828 10.4667 41.5842 9.656 43.0775 9.08C44.5708 8.504 46.1922 8.216 47.9415 8.216C49.7122 8.216 51.3335 8.504 52.8055 9.08C54.2988 9.656 55.5895 10.4667 56.6775 11.512C57.7868 12.5573 58.6508 13.784 59.2695 15.192C59.8882 16.5787 60.1975 18.1147 60.1975 19.8C60.1975 21.464 59.8882 23.0107 59.2695 24.44C58.6508 25.848 57.7868 27.0747 56.6775 28.12C55.5895 29.144 54.2988 29.944 52.8055 30.52C51.3335 31.096 49.7228 31.384 47.9735 31.384ZM47.9415 26.968C48.9442 26.968 49.8615 26.7973 50.6935 26.456C51.5468 26.1147 52.2935 25.624 52.9335 24.984C53.5735 24.344 54.0642 23.5867 54.4055 22.712C54.7682 21.8373 54.9495 20.8667 54.9495 19.8C54.9495 18.7333 54.7682 17.7627 54.4055 16.888C54.0642 16.0133 53.5735 15.256 52.9335 14.616C52.3148 13.976 51.5788 13.4853 50.7255 13.144C49.8722 12.8027 48.9442 12.632 47.9415 12.632C46.9388 12.632 46.0108 12.8027 45.1575 13.144C44.3255 13.4853 43.5895 13.976 42.9495 14.616C42.3095 15.256 41.8082 16.0133 41.4455 16.888C41.1042 17.7627 40.9335 18.7333 40.9335 19.8C40.9335 20.8453 41.1042 21.816 41.4455 22.712C41.8082 23.5867 42.2988 24.344 42.9175 24.984C43.5575 25.624 44.3042 26.1147 45.1575 26.456C46.0108 26.7973 46.9388 26.968 47.9415 26.968ZM74.9095 31.384C73.1388 31.384 71.5068 31.1067 70.0135 30.552C68.5415 29.976 67.2508 29.1653 66.1415 28.12C65.0535 27.0747 64.2002 25.848 63.5815 24.44C62.9842 23.032 62.6855 21.4853 62.6855 19.8C62.6855 18.1147 62.9842 16.568 63.5815 15.16C64.2002 13.752 65.0642 12.5253 66.1735 11.48C67.2828 10.4347 68.5842 9.63467 70.0775 9.08C71.5708 8.504 73.2135 8.216 75.0055 8.216C76.9895 8.216 78.7708 8.54667 80.3495 9.208C81.9495 9.86933 83.2935 10.8293 84.3815 12.088L81.0535 15.16C80.2428 14.3067 79.3575 13.6773 78.3975 13.272C77.4375 12.8453 76.3922 12.632 75.2615 12.632C74.1735 12.632 73.1815 12.8027 72.2855 13.144C71.3895 13.4853 70.6108 13.976 69.9495 14.616C69.3095 15.256 68.8082 16.0133 68.4455 16.888C68.1042 17.7627 67.9335 18.7333 67.9335 19.8C67.9335 20.8453 68.1042 21.8053 68.4455 22.68C68.8082 23.5547 69.3095 24.3227 69.9495 24.984C70.6108 25.624 71.3788 26.1147 72.2535 26.456C73.1495 26.7973 74.1308 26.968 75.1975 26.968C76.2215 26.968 77.2135 26.808 78.1735 26.488C79.1548 26.1467 80.1042 25.5813 81.0215 24.792L83.9655 28.536C82.7495 29.4533 81.3308 30.1573 79.7095 30.648C78.1095 31.1387 76.5095 31.384 74.9095 31.384ZM79.2295 27.864V19.448H83.9655V28.536L79.2295 27.864ZM88.781 31V8.6H93.965V31H88.781ZM99.281 31V8.6H103.569L116.785 24.728H114.705V8.6H119.825V31H115.569L102.321 14.872H104.401V31H99.281ZM134.187 31V8.6H144.363C146.795 8.6 148.939 9.06933 150.795 10.008C152.651 10.9253 154.102 12.216 155.147 13.88C156.193 15.544 156.715 17.5173 156.715 19.8C156.715 22.0613 156.193 24.0347 155.147 25.72C154.102 27.384 152.651 28.6853 150.795 29.624C148.939 30.5413 146.795 31 144.363 31H134.187ZM139.371 26.744H144.107C145.601 26.744 146.891 26.4667 147.979 25.912C149.089 25.336 149.942 24.5253 150.539 23.48C151.158 22.4347 151.467 21.208 151.467 19.8C151.467 18.3707 151.158 17.144 150.539 16.12C149.942 15.0747 149.089 14.2747 147.979 13.72C146.891 13.144 145.601 12.856 144.107 12.856H139.371V26.744ZM171.505 31.384C169.734 31.384 168.091 31.096 166.577 30.52C165.083 29.944 163.782 29.1333 162.673 28.088C161.585 27.0427 160.731 25.816 160.113 24.408C159.515 23 159.217 21.464 159.217 19.8C159.217 18.136 159.515 16.6 160.113 15.192C160.731 13.784 161.595 12.5573 162.705 11.512C163.814 10.4667 165.115 9.656 166.609 9.08C168.102 8.504 169.723 8.216 171.473 8.216C173.243 8.216 174.865 8.504 176.337 9.08C177.83 9.656 179.121 10.4667 180.209 11.512C181.318 12.5573 182.182 13.784 182.801 15.192C183.419 16.5787 183.729 18.1147 183.729 19.8C183.729 21.464 183.419 23.0107 182.801 24.44C182.182 25.848 181.318 27.0747 180.209 28.12C179.121 29.144 177.83 29.944 176.337 30.52C174.865 31.096 173.254 31.384 171.505 31.384ZM171.473 26.968C172.475 26.968 173.393 26.7973 174.225 26.456C175.078 26.1147 175.825 25.624 176.465 24.984C177.105 24.344 177.595 23.5867 177.937 22.712C178.299 21.8373 178.481 20.8667 178.481 19.8C178.481 18.7333 178.299 17.7627 177.937 16.888C177.595 16.0133 177.105 15.256 176.465 14.616C175.846 13.976 175.11 13.4853 174.257 13.144C173.403 12.8027 172.475 12.632 171.473 12.632C170.47 12.632 169.542 12.8027 168.689 13.144C167.857 13.4853 167.121 13.976 166.481 14.616C165.841 15.256 165.339 16.0133 164.977 16.888C164.635 17.7627 164.465 18.7333 164.465 19.8C164.465 20.8453 164.635 21.816 164.977 22.712C165.339 23.5867 165.83 24.344 166.449 24.984C167.089 25.624 167.835 26.1147 168.689 26.456C169.542 26.7973 170.47 26.968 171.473 26.968ZM206.639 31.384C203.461 31.384 200.975 30.4987 199.183 28.728C197.391 26.9573 196.495 24.4293 196.495 21.144V8.6H201.679V20.952C201.679 23.0853 202.117 24.6213 202.991 25.56C203.866 26.4987 205.093 26.968 206.671 26.968C208.25 26.968 209.477 26.4987 210.351 25.56C211.226 24.6213 211.663 23.0853 211.663 20.952V8.6H216.783V21.144C216.783 24.4293 215.887 26.9573 214.095 28.728C212.303 30.4987 209.818 31.384 206.639 31.384ZM229.266 31.384C227.474 31.384 225.757 31.1493 224.114 30.68C222.471 30.1893 221.149 29.56 220.146 28.792L221.906 24.888C222.866 25.5707 223.997 26.136 225.298 26.584C226.621 27.0107 227.954 27.224 229.298 27.224C230.322 27.224 231.143 27.128 231.762 26.936C232.402 26.7227 232.871 26.4347 233.17 26.072C233.469 25.7093 233.618 25.2933 233.618 24.824C233.618 24.2267 233.383 23.7573 232.914 23.416C232.445 23.0533 231.826 22.7653 231.058 22.552C230.29 22.3173 229.437 22.104 228.498 21.912C227.581 21.6987 226.653 21.4427 225.714 21.144C224.797 20.8453 223.954 20.4613 223.186 19.992C222.418 19.5227 221.789 18.904 221.298 18.136C220.829 17.368 220.594 16.3867 220.594 15.192C220.594 13.912 220.935 12.7493 221.618 11.704C222.322 10.6373 223.367 9.79467 224.754 9.176C226.162 8.536 227.922 8.216 230.034 8.216C231.442 8.216 232.829 8.38667 234.194 8.728C235.559 9.048 236.765 9.53867 237.81 10.2L236.21 14.136C235.165 13.5387 234.119 13.1013 233.074 12.824C232.029 12.5253 231.005 12.376 230.002 12.376C228.999 12.376 228.178 12.4933 227.538 12.728C226.898 12.9627 226.439 13.272 226.162 13.656C225.885 14.0187 225.746 14.4453 225.746 14.936C225.746 15.512 225.981 15.9813 226.45 16.344C226.919 16.6853 227.538 16.9627 228.306 17.176C229.074 17.3893 229.917 17.6027 230.834 17.816C231.773 18.0293 232.701 18.2747 233.618 18.552C234.557 18.8293 235.41 19.2027 236.178 19.672C236.946 20.1413 237.565 20.76 238.034 21.528C238.525 22.296 238.77 23.2667 238.77 24.44C238.77 25.6987 238.418 26.8507 237.714 27.896C237.01 28.9413 235.954 29.784 234.546 30.424C233.159 31.064 231.399 31.384 229.266 31.384ZM252.264 31.384C249.086 31.384 246.6 30.4987 244.808 28.728C243.016 26.9573 242.12 24.4293 242.12 21.144V8.6H247.304V20.952C247.304 23.0853 247.742 24.6213 248.616 25.56C249.491 26.4987 250.718 26.968 252.296 26.968C253.875 26.968 255.102 26.4987 255.976 25.56C256.851 24.6213 257.288 23.0853 257.288 20.952V8.6H262.408V21.144C262.408 24.4293 261.512 26.9573 259.72 28.728C257.928 30.4987 255.443 31.384 252.264 31.384ZM264.118 31L274.102 8.6H279.222L289.238 31H283.798L275.606 11.224H277.654L269.43 31H264.118ZM269.11 26.2L270.486 22.264H282.006L283.414 26.2H269.11ZM273.75 6.776L278.07 2.168H283.446L277.654 6.776H273.75ZM291.562 31V8.6H301.258C303.264 8.6 304.992 8.93067 306.442 9.592C307.893 10.232 309.013 11.16 309.802 12.376C310.592 13.592 310.986 15.0427 310.986 16.728C310.986 18.392 310.592 19.832 309.802 21.048C309.013 22.2427 307.893 23.16 306.442 23.8C304.992 24.44 303.264 24.76 301.258 24.76H294.442L296.746 22.488V31H291.562ZM305.802 31L300.202 22.872H305.738L311.402 31H305.802ZM296.746 23.064L294.442 20.632H300.97C302.57 20.632 303.765 20.2907 304.554 19.608C305.344 18.904 305.738 17.944 305.738 16.728C305.738 15.4907 305.344 14.5307 304.554 13.848C303.765 13.1653 302.57 12.824 300.97 12.824H294.442L296.746 10.36V23.064ZM315.094 31V8.6H320.278V31H315.094ZM336.474 31.384C334.703 31.384 333.06 31.096 331.546 30.52C330.052 29.944 328.751 29.1333 327.641 28.088C326.554 27.0427 325.7 25.816 325.082 24.408C324.484 23 324.186 21.464 324.186 19.8C324.186 18.136 324.484 16.6 325.082 15.192C325.7 13.784 326.564 12.5573 327.674 11.512C328.783 10.4667 330.084 9.656 331.578 9.08C333.071 8.504 334.692 8.216 336.442 8.216C338.212 8.216 339.833 8.504 341.306 9.08C342.799 9.656 344.09 10.4667 345.178 11.512C346.287 12.5573 347.151 13.784 347.77 15.192C348.388 16.5787 348.698 18.1147 348.698 19.8C348.698 21.464 348.388 23.0107 347.77 24.44C347.151 25.848 346.287 27.0747 345.178 28.12C344.09 29.144 342.799 29.944 341.306 30.52C339.833 31.096 338.223 31.384 336.474 31.384ZM336.442 26.968C337.444 26.968 338.362 26.7973 339.194 26.456C340.047 26.1147 340.794 25.624 341.434 24.984C342.074 24.344 342.564 23.5867 342.906 22.712C343.268 21.8373 343.45 20.8667 343.45 19.8C343.45 18.7333 343.268 17.7627 342.906 16.888C342.564 16.0133 342.074 15.256 341.434 14.616C340.815 13.976 340.079 13.4853 339.226 13.144C338.372 12.8027 337.444 12.632 336.442 12.632C335.439 12.632 334.511 12.8027 333.658 13.144C332.826 13.4853 332.09 13.976 331.45 14.616C330.81 15.256 330.308 16.0133 329.946 16.888C329.604 17.7627 329.434 18.7333 329.434 19.8C329.434 20.8453 329.604 21.816 329.946 22.712C330.308 23.5867 330.799 24.344 331.418 24.984C332.058 25.624 332.804 26.1147 333.658 26.456C334.511 26.7973 335.439 26.968 336.442 26.968Z" fill="black"/>
<path d="M3 0L3 39" stroke="#F8D442" stroke-width="6"/>
</svg>
